HIERARCHY
ROOT root
{
	OFFSET 0.000000 0.000000 0.000000
	CHANNELS 6 Xposition Yposition Zposition Zrotation Yrotation Xrotation
	JOINT lhip
	{
		OFFSET 0.058581 -0.082280 -0.017664
		CHANNELS 3 Zrotation Yrotation Xrotation
		JOINT lknee
		{
			OFFSET 0.043451 -0.386469 0.008037
			CHANNELS 3 Zrotation Yrotation Xrotation
			JOINT lankle
			{
				OFFSET -0.014790 -0.426874 -0.037428
				CHANNELS 3 Zrotation Yrotation Xrotation
				JOINT ltoe
				{
					OFFSET 0.041054 -0.060286 0.122042
					CHANNELS 3 Zrotation Yrotation Xrotation
					End Site
					{
						OFFSET 0.000000 0.000000 0.000000
					}
				}
			}
		}
	}
	JOINT rhip
	{
		OFFSET -0.060310 -0.090513 -0.013543
		CHANNELS 3 Zrotation Yrotation Xrotation
		JOINT rknee
		{
			OFFSET -0.043257 -0.383688 -0.004843
			CHANNELS 3 Zrotation Yrotation Xrotation
			JOINT rankle
			{
				OFFSET 0.019056 -0.420046 -0.034562
				CHANNELS 3 Zrotation Yrotation Xrotation
				JOINT rtoe
				{
					OFFSET -0.034840 -0.062106 0.130323
					CHANNELS 3 Zrotation Yrotation Xrotation
					End Site
					{
						OFFSET 0.000000 0.000000 0.000000
					}
				}
			}
		}
	}
	JOINT lowerback
	{
		OFFSET 0.004439 0.124404 -0.038385
		CHANNELS 3 Zrotation Yrotation Xrotation
		JOINT upperback
		{
			OFFSET 0.004488 0.137956 0.026820
			CHANNELS 3 Zrotation Yrotation Xrotation
			JOINT chest
			{
				OFFSET -0.002265 0.056032 0.002855
				CHANNELS 3 Zrotation Yrotation Xrotation
				JOINT lowerneck
				{
					OFFSET -0.013390 0.211636 -0.033468
					CHANNELS 3 Zrotation Yrotation Xrotation
					JOINT upperneck
					{
						OFFSET 0.010113 0.088937 0.050410
						CHANNELS 3 Zrotation Yrotation Xrotation
						End Site
						{
							OFFSET 0.000000 0.000000 0.000000
						}
					}
				}
				JOINT lclavicle
				{
					OFFSET 0.071702 0.114000 -0.018898
					CHANNELS 3 Zrotation Yrotation Xrotation
					JOINT lshoulder
					{
						OFFSET 0.122921 0.045205 -0.019046
						CHANNELS 3 Zrotation Yrotation Xrotation
						JOINT lelbow
						{
							OFFSET 0.255332 -0.015649 -0.022946
							CHANNELS 3 Zrotation Yrotation Xrotation
							JOINT lwrist
							{
								OFFSET 0.265709 0.012698 -0.007375
								CHANNELS 3 Zrotation Yrotation Xrotation
								End Site
								{
									OFFSET 0.000000 0.000000 0.000000
								}
							}
						}
					}
				}
				JOINT rclavicle
				{
					OFFSET -0.082954 0.112472 -0.023707
					CHANNELS 3 Zrotation Yrotation Xrotation
					JOINT rshoulder
					{
						OFFSET -0.113228 0.046853 -0.008472
						CHANNELS 3 Zrotation Yrotation Xrotation
						JOINT relbow
						{
							OFFSET -0.260127 -0.014369 -0.031269
							CHANNELS 3 Zrotation Yrotation Xrotation
							JOINT rwrist
							{
								OFFSET -0.269108 0.006794 -0.006027
								CHANNELS 3 Zrotation Yrotation Xrotation
								End Site
								{
									OFFSET 0.000000 0.000000 0.000000
								}
							}
						}
					}
				}
			}
		}
	}
}
MOTION
Frames: 5
Frame Time: 0.033333
-1.473142 0.414159 0.976270 80.923820 0.740654 86.735581 1.167412 -3.493351 -7.346962 -10.294362 -10.656188 23.365328 8.779363 14.782346 -18.973144 0.000000 -0.000000 0.000000 2.395136 -0.406610 4.247926 6.875973 12.726570 14.247120 -0.353453 -6.121459 -21.186992 0.000000 -0.000000 0.000000 -1.733274 6.443475 6.547038 4.653106 -2.065693 3.293717 2.108153 2.404570 -2.179262 0.728712 11.593340 -11.437485 -1.065411 -8.764710 -2.635031 -0.371517 -0.144612 -12.532304 10.968427 -13.172343 -16.639510 45.135614 -55.156910 -42.945125 33.441974 -28.813051 2.729950 22.761908 17.988686 -3.883022 39.721126 24.002349 13.457277 -28.020836 75.913266 -24.032974 -14.275254 14.437555 -23.268337 
-1.466229 0.420008 0.974413 83.877417 -1.185990 86.861694 -1.577399 -4.997387 -6.293153 -10.339759 -12.762370 21.611859 9.598683 15.181503 -18.204229 0.000000 -0.000000 0.000000 1.301012 0.566587 1.044840 6.683658 11.029596 20.989483 0.451456 -8.889853 -24.107199 0.000000 -0.000000 0.000000 -2.693393 5.507708 6.456598 3.924555 -2.690190 3.118220 1.519017 1.910378 -2.005110 -0.437413 8.280730 -11.988886 0.346286 -7.216065 -2.334257 -1.165152 -1.345737 -11.763687 10.982936 -13.263728 -15.758390 48.288251 -55.177487 -46.842375 35.257481 -25.526365 -2.614259 22.756432 17.994255 -3.922755 39.860683 22.934770 13.702299 -29.921502 76.364969 -26.017936 -14.341739 13.628921 -23.127959 
-1.461066 0.425411 0.972640 86.993645 -3.668984 86.902176 -4.403667 -6.359861 -5.104211 -10.430664 -13.890847 19.205689 10.115920 14.300615 -16.808683 0.000000 -0.000000 0.000000 -0.765217 0.963291 -2.908384 6.689811 8.732301 29.084793 0.633889 -10.436156 -25.976860 0.000000 -0.000000 0.000000 -3.943670 4.311305 7.077113 2.639294 -3.380385 2.176357 0.608759 1.800693 -1.399873 -1.806017 6.226019 -11.932629 2.866791 -5.748475 -3.074720 -1.096167 -2.130586 -12.070066 10.385604 -14.864877 -15.236026 51.190781 -55.101538 -53.102121 37.042085 -21.700867 -7.748735 22.572727 17.501945 -4.335093 40.628156 22.490489 14.431423 -31.685419 76.936435 -29.124719 -14.333785 12.281984 -23.426399 
-1.455835 0.432052 0.970810 91.351807 -6.211992 86.778985 -7.063186 -7.390549 -3.322918 -10.633857 -16.214291 15.747432 10.178002 12.917068 -15.122022 0.000000 -0.000000 0.000000 -3.554134 -0.023580 -7.487430 6.672743 6.052089 38.425550 1.352460 -11.242912 -25.635027 0.000000 -0.000000 0.000000 -4.166636 2.459670 8.268914 0.942684 -4.410469 0.454157 -0.899019 1.627097 -0.396452 -4.164469 3.275936 -12.135138 4.818826 -4.195798 -3.749273 -1.160199 -3.405121 -12.162353 9.510419 -16.685671 -15.412058 55.710608 -54.705960 -61.834633 39.121849 -17.213597 -12.928293 22.074134 17.132667 -4.546207 40.479701 22.905336 13.895993 -30.079586 77.623488 -28.461925 -13.432604 11.923439 -22.161072 
-1.453019 0.434645 0.969721 93.511775 -7.336219 86.206880 -8.259135 -7.130853 -1.728468 -10.366868 -17.655023 13.667102 9.981301 11.769903 -14.091123 0.000000 -0.000000 0.000000 -4.837261 -0.637022 -9.260448 6.648417 5.328703 42.929424 1.385097 -11.433429 -25.112297 0.000000 -0.000000 0.000000 -3.974797 1.562875 9.128647 0.005310 -4.702353 0.568708 -1.707718 1.589919 -0.972814 -4.897800 1.527467 -12.461932 4.049941 -4.252094 -2.038891 -1.417447 -4.740898 -12.311563 8.875288 -18.011500 -15.403937 58.012827 -53.747338 -64.908785 39.134600 -16.388302 -13.898107 21.581972 17.412658 -4.349964 40.140297 22.529101 13.975965 -33.727527 77.499857 -31.861834 -13.147334 12.318463 -22.024488 
